# xmcd
#
# Track frame offsets:
#	150
#	20402
#	36587
#	51410
#	65712
#	83602
#	95285
#	112005
#	131012
#	146855
#	170780
#	189341
#	204860
#	220981
#	236227
#
# Disc length: 3381 seconds
# Revision: 0
# Processed by: cddbd v1.5.1PL0 Copyright (c) Steve Scherf et al.
# Submitted via: cdrLabel 7.1
#
DISCID=e50d330f
DTITLE=3 Volte Lacrime [+bonus]
DYEAR=1996
DGENRE=
TTITLE0=Tre Volte Lacrime
TTITLE1=Grafico Deposit
TTITLE2=Falso Amore
TTITLE3=Libra
TTITLE4=Oceano
TTITLE5=Io ho in Mente te
TTITLE6=Hypocrates
TTITLE7=Spazi Immensi
TTITLE8=Marisa Allasio
TTITLE9=Madre
TTITLE10=Autoritratto
TTITLE11=Neogrigio [live bonus]
TTITLE12=Impronte [live bonus]
TTITLE13=Siberia [live bonus]
TTITLE14=Elena [live bonus]
EXTD=
EXTT0=
EXTT1=
EXTT2=
EXTT3=
EXTT4=
EXTT5=
EXTT6=
EXTT7=
EXTT8=
EXTT9=
EXTT10=
EXTT11=
EXTT12=
EXTT13=
EXTT14=
PLAYORDER=
